<svg xmlns="http://www.w3.org/2000/svg" width="32" height="32" viewBox="0 0 32 32"><rect width="32" height="32" rx="6" fill="#23272D"/><path d="M16 7.5c-4.7 0-8.5 3.8-8.5 8.5 0 3.8 2.5 7 6 8.1.4.1.5-.2.5-.4v-1.4c-2.4.5-2.9-1-2.9-1-.4-1-1-1.3-1-1.3-.8-.6.1-.6.1-.6.9.1 1.4.9 1.4.9.8 1.4 2.1 1 2.6.8.1-.6.3-1 .5-1.2-1.9-.2-3.9-.9-3.9-4 0-.9.3-1.6.8-2.2-.1-.2-.3-1 .1-2.1 0 0 .7-.2 2.2.8.7-.2 1.5-.3 2.2-.3.7 0 1.5.1 2.2.3 1.5-1 2.2-.8 2.2-.8.4 1.1.2 1.9.1 2.1.5.6.8 1.3.8 2.2 0 3.1-2 3.8-3.9 4 .3.3.5.7.5 1.4v2c0 .2.1.5.5.4 3.5-1.1 6-4.3 6-8.1 0-4.7-3.8-8.5-8.5-8.5z" fill="#fff"/></svg> 