<svg xmlns="http://www.w3.org/2000/svg" width="32" height="32" viewBox="0 0 32 32"><rect width="32" height="32" rx="6" fill="#1DA1F2"/><path d="M25.6 11.1c.01.15.01.31.01.46 0 4.67-3.56 10.06-10.06 10.06-2 0-3.87-.59-5.44-1.6.28.03.56.05.85.05 1.66 0 3.19-.57 4.41-1.53-1.55-.03-2.86-1.05-3.31-2.45.22.04.44.07.67.07.32 0 .63-.04.92-.12-1.62-.33-2.84-1.76-2.84-3.48v-.04c.48.27 1.03.43 1.62.45-.96-.64-1.59-1.73-1.59-2.97 0-.65.17-1.25.47-1.77 1.71 2.1 4.27 3.48 7.15 3.63-.06-.26-.09-.53-.09-.81 0-1.95 1.58-3.53 3.53-3.53 1.02 0 1.94.43 2.59 1.12.81-.16 1.57-.45 2.26-.86-.27.84-.84 1.54-1.59 1.98.72-.09 1.41-.28 2.05-.57-.48.72-1.09 1.36-1.8 1.87z" fill="#fff"/></svg> 